Coordinates
datacolumns 11
datarows 39
range 1.05 1.43
inDegrees=yes
Units are S.I. units (second, meters, Newtons, ...)
If the header above contains a line with 'inDegrees', this indicates whether rotational values are in degrees (yes) or radians (no).
endheader
time	pelvis_tilt	pelvis_tx	pelvis_ty	hip_flexion_l	hip_flexion_r	knee_angle_l	knee_angle_r	ankle_angle_l	ankle_angle_r	lumbar
1.05	-25.51768317	0.11977295	0.78049823	79.05318006	79.05318006	-66.36775488	-66.36775488	12.78864698	12.78864698	-40.04681127
1.06	-25.46009124	0.12352496	0.78406877	78.34337394	78.34337394	-65.840721	-65.840721	12.80561442	12.80561442	-39.88252251
1.07	-25.61941952	0.1269761	0.78716462	77.89056692	77.89056692	-65.29347303	-65.29347303	12.8156329	12.8156329	-39.42012563
1.08	-25.69060523	0.13048848	0.790465	77.33153576	77.33153576	-64.73617103	-64.73617103	12.78201885	12.78201885	-39.03334358
1.09	-25.73741645	0.13395838	0.79382743	76.74414025	76.74414025	-64.14993436	-64.14993436	12.73135671	12.73135671	-38.65060766
1.1	-25.73896642	0.13742951	0.79726978	76.10949122	76.10949122	-63.56509797	-63.56509797	12.65597596	12.65597596	-38.29095369
1.11	-25.71880994	0.14088389	0.80073285	75.45366459	75.45366459	-62.97698801	-62.97698801	12.57118485	12.57118485	-37.92555816
1.12	-25.4717424	0.14451783	0.80469485	74.53704304	74.53704304	-62.37331029	-62.37331029	12.35401074	12.35401074	-37.82306814
1.13	-25.57597317	0.14778103	0.80778813	74.03568649	74.03568649	-61.79365557	-61.79365557	12.35127869	12.35127869	-37.22991395
1.14	-25.37224312	0.15134152	0.81159381	73.17653763	73.17653763	-61.19395013	-61.19395013	12.20656926	12.20656926	-37.00528595
1.15	-25.46750797	0.15457266	0.81467626	72.66721828	72.66721828	-60.60688766	-60.60688766	12.21030636	12.21030636	-36.37015121
1.16	-25.49446946	0.15785179	0.81789511	72.07777257	72.07777257	-60.00984013	-60.00984013	12.18950203	12.18950203	-35.79512253
1.17	-25.15026227	0.16147164	0.82192364	71.05620415	71.05620415	-59.38546441	-59.38546441	12.01374824	12.01374824	-35.66152212
1.18	-25.21664069	0.16468423	0.82496175	70.52234369	70.52234369	-58.79612116	-58.79612116	12.01947189	12.01947189	-34.97505112
1.19	-24.95040254	0.16820911	0.82875753	69.59427258	69.59427258	-58.16850479	-58.16850479	11.89872468	11.89872468	-34.68853535
1.2	-25.00695946	0.17141434	0.8317275	69.06071725	69.06071725	-57.58721479	-57.58721479	11.91060213	11.91060213	-33.94832626
1.21	-24.98014406	0.17468128	0.83490375	68.41606951	68.41606951	-56.96872138	-56.96872138	11.89394338	11.89394338	-33.29996264
1.22	-24.53244104	0.17833766	0.83902883	67.27961401	67.27961401	-56.32152816	-56.32152816	11.73099746	11.73099746	-33.17740534
1.23	-24.37459422	0.18168892	0.84243546	66.49078833	66.49078833	-55.7004628	-55.7004628	11.67451144	11.67451144	-32.64955468
1.24	-24.37721758	0.18489518	0.8454213	65.89646335	65.89646335	-55.09831511	-55.09831511	11.67552211	11.67552211	-31.88717975
1.25	-24.05792179	0.1883369	0.84914686	64.91927018	64.91927018	-54.44397526	-54.44397526	11.55473452	11.55473452	-31.52589854
1.26	-24.06717174	0.19150949	0.85209714	64.32835744	64.32835744	-53.82979555	-53.82979555	11.5571315	11.5571315	-30.72175048
1.27	-23.74785505	0.19493987	0.85579246	63.34649751	63.34649751	-53.16008185	-53.16008185	11.42437639	11.42437639	-30.32660755
1.28	-23.59021126	0.19823135	0.85910183	62.55341804	62.55341804	-52.5051742	-52.5051742	11.35693051	11.35693051	-29.70761329
1.29	-23.42227352	0.20153546	0.86242745	61.7445987	61.7445987	-51.83955779	-51.83955779	11.28682233	11.28682233	-29.08964614
1.3	-23.24492225	0.20485251	0.86577243	60.91711009	60.91711009	-51.15859193	-51.15859193	11.21495689	11.21495689	-28.47209779
1.31	-23.05317352	0.20818831	0.86914669	60.06669702	60.06669702	-50.46282073	-50.46282073	11.13885071	11.13885071	-27.8644682
1.32	-22.84848878	0.21153933	0.8725451	59.19416774	59.19416774	-49.7513055	-49.7513055	11.05800755	11.05800755	-27.26620152
1.33	-22.62852633	0.21490673	0.8759687	58.29842077	58.29842077	-49.02604274	-49.02604274	10.97082862	10.97082862	-26.67989176
1.34	-22.39283121	0.21829009	0.87941296	57.38033279	57.38033279	-48.28875719	-48.28875719	10.87664269	10.87664269	-26.10689146
1.35	-22.14235312	0.22168638	0.88287097	56.44195336	56.44195336	-47.54108449	-47.54108449	10.77501526	10.77501526	-25.54629092
1.36	-21.87864816	0.2250917	0.88633538	55.48605878	55.48605878	-46.78447797	-46.78447797	10.66594425	10.66594425	-24.99667166
1.37	-21.8374758	0.22831399	0.88925629	54.7997911	54.7997911	-46.0622565	-46.0622565	10.6518796	10.6518796	-24.15267272
1.38	-21.31870273	0.23191412	0.89325847	53.53254891	53.53254891	-45.24749323	-45.24749323	10.42558835	10.42558835	-23.92478109
1.39	-21.26766225	0.23513741	0.89615077	52.83330563	52.83330563	-44.51480648	-44.51480648	10.40600059	10.40600059	-23.08638
1.4	-20.71924262	0.23876399	0.90015638	51.52802196	51.52802196	-43.68522401	-43.68522401	10.15976326	10.15976326	-22.88709781
1.41	-20.41410488	0.24215384	0.9035882	50.51755906	50.51755906	-42.88091327	-42.88091327	10.02354461	10.02354461	-22.38195422
1.42	-20.07837383	0.24564792	0.90703094	49.46441666	49.46441666	-42.08996602	-42.08996602	9.87497795	9.87497795	-21.89205984
1.43	-19.73300698	0.24904371	0.91047913	48.40926506	48.40926506	-41.27922008	-41.27922008	9.72502431	9.72502431	-21.43852501
